<svg id="Layer_1" data-name="Layer 1" xmlns="http://www.w3.org/2000/svg" viewBox="0 0 269.56 286.05"><defs><style>.cls-1{fill:#025e57;}.cls-2{fill:#056059;}.cls-3{fill:#136862;}.cls-4{fill:#0b635d;}</style></defs><title>logo_equine_mark_green</title><path class="cls-1" d="M206.91,8.29v200.1c0,14.2-7.32,21.6-21.43,21.62-16,0-32,.06-48,0-12.78-.05-20.43-7.78-20.48-20.59,0-9.83-.13-19.66.07-29.48.06-3-1-4.71-3.42-6.44a56.79,56.79,0,0,1-17.75-72.82c1.85-3.56,3.36-3.89,6.52-1.61,4.44,3.2,9.16,6,13.85,8.88,1.88,1.14,2.32,2,1.31,4.26-9.06,20.32-.41,39.68,20.73,46.24,2.83.88,3.06,2.23,3.05,4.58-.07,12.66.14,25.32-.13,38-.09,4.07,1.24,5,5.06,4.88,10.48-.25,21-.31,31.47,0,4.18.13,4.86-1.37,4.85-5.1q-.17-70.71,0-141.42c0-3.12-.78-4.56-3.94-5.63C117.82,33,50,71.19,36.15,134.12,22,198.27,64.42,259.4,129.4,268.63c61.95,8.8,119.91-38,124.71-100.5q3.08-39.88-19.59-72.64c-1.92-2.77-1.69-4,1-5.78a140.5,140.5,0,0,0,12.74-9.64c2.68-2.29,4-2,6,.87,11.7,17,19.58,35.45,22.78,55.84,10.92,69.56-30.62,134-98.29,152.57C102.76,310.2,23.21,259,11,181.47-.53,108.26,45.08,41.78,117.5,26.53a129.74,129.74,0,0,1,61.3,2,6.65,6.65,0,0,0,7.1-1.74C192.51,20.74,199.32,14.94,206.91,8.29Z" transform="translate(-9.22 -7.97)"/><path class="cls-2" d="M160.59,96.74a13.43,13.43,0,0,1,13.22,13.4,13.79,13.79,0,0,1-13.68,13.61,13.48,13.48,0,0,1-13.32-13.81A13.14,13.14,0,0,1,160.59,96.74Z" transform="translate(-9.22 -7.97)"/><path class="cls-3" d="M243.5,8a19.69,19.69,0,0,1,20.24,19.67,20,20,0,0,1-20.06,20.45A19.65,19.65,0,0,1,223.51,27.9,19.76,19.76,0,0,1,243.5,8Zm16.64,20c0-9.65-7.19-16.88-16.67-16.78a16.57,16.57,0,0,0-16.58,17A16.43,16.43,0,0,0,243.6,44.93C253,44.88,260.15,37.51,260.14,27.92Z" transform="translate(-9.22 -7.97)"/><path class="cls-4" d="M253.9,38.71c-3.76,1.47-5.41-.44-6.72-3-1.13-2.2-2.54-3.9-5.4-3.31s-1.56,2.89-1.69,4.46-.51,2.41-2.3,2.37S235,38.9,235,36.8c.09-5.81.06-11.63,0-17.44,0-1.59.4-2.54,2.21-2.47,3.48.13,7-.23,10.43.36,5.51,1,8.6,7.53,5,11.37-3.27,3.47-1.84,5.49.22,8.16A15.3,15.3,0,0,1,253.9,38.71ZM240.08,24.88c-.41,2.28-.21,4.25,3,3.84,2.78-.35,6-.28,5.85-4.31-.14-3.38-2.87-3.33-5.4-3.63C240.3,20.4,239.49,21.91,240.08,24.88Z" transform="translate(-9.22 -7.97)"/></svg>